# Blender 3.3.1
# www.blender.org
mtllib milk.mtl
o Cube
v -1.000000 0.000000 1.000000
v -1.000000 5.212636 0.868345
v -1.000000 0.000000 -1.000000
v -1.000000 5.212636 -0.868345
v 1.000000 0.000000 1.000000
v 1.000000 5.212636 0.868345
v 1.000000 0.000000 -1.000000
v 1.000000 5.212636 -0.868345
v -1.000000 6.075164 0.025826
v -1.000000 6.075164 -0.025826
v 1.000000 6.075164 -0.025826
v 1.000000 6.075164 0.025826
v -1.000000 6.514085 0.049172
v -1.000000 6.514085 -0.049172
v 1.000000 6.514085 -0.049172
v 1.000000 6.514085 0.049172
v -1.000000 5.157196 1.000000
v -1.000000 5.157196 -1.000000
v 1.000000 5.157196 -1.000000
v 1.000000 5.157196 1.000000
v -1.000000 6.130604 0.049172
v -1.000000 6.130604 -0.049172
v 1.000000 6.130604 -0.049172
v 1.000000 6.130604 0.049172
v -0.865196 5.374202 0.543034
v -0.865196 5.374202 -0.543034
v 0.865196 5.374202 -0.543034
v 0.865196 5.374202 0.543034
v -0.865196 5.913598 0.016150
v -0.865196 5.913598 -0.016150
v 0.865196 5.913598 -0.016150
v 0.865196 5.913598 0.016150
vn -1.0000 -0.0000 -0.0000
vn -0.0000 -0.0000 -1.0000
vn 1.0000 -0.0000 -0.0000
vn -0.0000 -0.0000 1.0000
vn -0.0000 -1.0000 -0.0000
vn -0.7678 -0.6406 -0.0000
vn -0.0000 0.6988 0.7154
vn -0.0000 0.6988 -0.7154
vn -0.6643 -0.5223 -0.5347
vn -0.0000 1.0000 -0.0000
vn -0.7678 0.6406 -0.0000
vn 0.6643 -0.5223 0.5347
vn -0.6643 -0.5223 0.5347
vn 0.7678 -0.6406 -0.0000
vn 0.7678 0.6406 -0.0000
vn 0.6643 -0.5223 -0.5347
vt 0.472693 0.763191
vt 0.234961 0.808516
vt 0.472693 0.999076
vt 0.833457 0.765039
vt 0.488099 0.153217
vt 0.822791 0.770107
vt 0.706730 0.763191
vt 0.236809 0.808516
vt 0.472693 0.765039
vt 0.691324 0.153217
vt 0.822791 0.973332
vt 0.833457 0.978399
vt 0.708578 0.000924
vt 0.000924 0.808516
vt 0.706730 0.999076
vt 0.723984 0.610898
vt 0.820943 0.770107
vt 0.810276 0.765039
vt 0.470845 0.808516
vt 0.942615 0.000924
vt 0.706730 0.765039
vt 0.927209 0.610898
vt 0.810276 0.978399
vt 0.820943 0.973332
vt 0.935155 0.868697
vt 0.934389 0.863630
vt 0.586690 0.052286
vt 0.935155 0.874741
vt 0.592734 0.052286
vt 0.934389 0.879809
vt 0.828619 0.711829
vt 0.709344 0.879809
vt 0.708578 0.874741
vt 0.822574 0.711830
vt 0.708578 0.868697
vt 0.709345 0.863630
vt 0.234961 0.000924
vt 0.234960 0.821872
vt 0.583958 0.000924
vt 0.234960 0.810364
vt 0.236809 0.000924
vt 0.595466 0.000924
vt 0.000924 0.810364
vt 0.470845 0.000924
vt 0.831351 0.763191
vt 0.000924 0.000924
vt 0.000924 0.821872
vt 0.819843 0.763191
vt 0.234961 0.205029
vt 0.472693 0.159705
vt 0.236809 0.205029
vt 0.706730 0.159705
vt 0.470845 0.205029
vt 0.942615 0.604410
vt 0.000924 0.205029
vt 0.708578 0.604410
vt 0.234961 0.045798
vt 0.583958 0.045798
vt 0.236809 0.045798
vt 0.595466 0.045798
vt 0.470845 0.045798
vt 0.831351 0.718317
vt 0.000924 0.045798
vt 0.819842 0.718317
vt 0.847413 0.808174
vt 0.847413 0.935264
vt 0.796320 0.935264
vt 0.796320 0.808174
vt 0.910533 0.869829
vt 0.910533 0.873609
vt 0.733201 0.873609
vt 0.733201 0.869829
s 0
usemtl Material.001
f 1/1/1 17/50/1 18/52/1 3/7/1
f 3/8/2 18/51/2 19/53/2 7/19/2
f 7/20/3 19/54/3 20/56/3 5/13/3
f 5/14/4 20/55/4 17/49/4 1/2/4
f 3/9/5 7/21/5 5/15/5 1/3/5
f 9/25/6 10/28/6 30/70/6 29/69/6
f 21/57/4 24/63/4 16/46/4 13/37/4
f 17/49/7 20/55/7 24/63/7 21/57/7
f 19/53/8 18/51/8 22/59/8 23/61/8
f 2/4/9 9/26/9 29/69/9 25/65/9
f 15/43/10 14/40/10 13/38/10 16/47/10
f 23/61/2 22/59/2 14/41/2 15/44/2
f 24/64/3 23/62/3 15/45/3 16/48/3
f 22/60/1 21/58/1 13/39/1 14/42/1
f 2/5/1 4/10/1 18/52/1 17/50/1
f 8/22/3 6/16/3 20/56/3 19/54/3
f 10/29/1 9/27/1 21/58/1 22/60/1
f 12/34/3 11/31/3 23/62/3 24/64/3
f 9/27/1 2/5/1 17/50/1 21/58/1
f 4/10/1 10/29/1 22/60/1 18/52/1
f 6/16/3 12/34/3 24/64/3 20/56/3
f 11/31/3 8/22/3 19/54/3 23/62/3
f 26/66/1 25/65/1 29/69/1 30/70/1
f 28/68/3 27/67/3 31/71/3 32/72/3
f 4/11/11 2/6/11 25/65/11 26/66/11
f 8/23/12 11/32/12 31/71/12 27/67/12
f 10/30/13 4/12/13 26/66/13 30/70/13
f 11/33/14 12/35/14 32/72/14 31/71/14
f 6/17/15 8/24/15 27/67/15 28/68/15
f 12/36/16 6/18/16 28/68/16 32/72/16
